<?xml version="1.0" standalone="no"?>
<!DOCTYPE svg PUBLIC "-//W3C//DTD SVG 20010904//EN"
 "http://www.w3.org/TR/2001/REC-SVG-20010904/DTD/svg10.dtd">
<svg version="1.0" xmlns="http://www.w3.org/2000/svg"
 width="70.000000pt" height="70.000000pt" viewBox="0 0 70.000000 70.000000"
 preserveAspectRatio="xMidYMid meet">
<metadata>
Created by potrace 1.14, written by Peter Selinger 2001-2017
</metadata>
<g transform="translate(0.000000,70.000000) scale(0.100000,-0.100000)"
fill="#000000" stroke="none">
<path d="M242 678 c-9 -13 -12 -187 -2 -189 3 -1 31 6 63 15 31 9 82 23 112
31 l55 16 0 53 c0 88 2 86 -115 86 -70 0 -106 -4 -113 -12z"/>
<path d="M517 548 c-21 -10 -82 -30 -135 -45 -192 -50 -230 -91 -237 -251 -2
-48 -11 -109 -20 -137 -24 -76 -27 -105 -12 -105 8 0 18 23 25 57 18 88 54
154 113 211 63 61 77 62 20 1 -22 -24 -49 -61 -61 -81 l-21 -38 28 11 c15 6
51 13 78 15 130 13 195 56 237 159 24 57 27 71 43 183 7 48 1 50 -58 20z"/>
<path d="M26 458 c-9 -5 -12 -35 -11 -110 1 -57 3 -106 4 -110 0 -5 23 -8 50
-8 l48 0 6 60 c7 66 26 111 63 150 l23 25 -85 0 c-47 0 -91 -3 -98 -7z"/>
<path d="M596 461 c-2 -3 -13 -38 -24 -77 -12 -38 -35 -89 -52 -112 l-30 -42
95 0 c52 0 96 3 97 8 6 31 3 214 -5 219 -13 8 -77 11 -81 4z"/>
<path d="M414 189 c-23 -10 -66 -21 -95 -24 -86 -9 -85 -8 -87 -75 0 -34 4
-62 10 -66 16 -10 190 -12 211 -2 14 7 17 23 17 98 0 50 -3 90 -7 89 -5 0 -27
-9 -49 -20z"/>
</g>
</svg>
