<svg xmlns="http://www.w3.org/2000/svg" aria-hidden="true" style="position:absolute;width:0;height:0;overflow:hidden">
  <defs>
    <symbol id="icon-burger" viewBox="0 0 32 32">
      <path stroke-linecap="round" stroke-linejoin="round" stroke-width="2" d="M4 8.001h24m-24 8h24m-24 8h24"/>
    </symbol>
    <symbol id="icon-eye-off" viewBox="0 0 32 32">
      <path stroke-linecap="round" stroke-linejoin="round" stroke-width="2.667" d="M23.92 23.92A13.43 13.43 0 0 1 16 26.667C6.667 26.667 1.333 16 1.333 16A24.605 24.605 0 0 1 8.08 8.08m5.12-2.427a12.161 12.161 0 0 1 2.8-.32C25.333 5.333 30.667 16 30.667 16a24.646 24.646 0 0 1-2.88 4.253m-8.96-1.426a4.01 4.01 0 0 1-2.855 1.273 3.987 3.987 0 0 1-3.779-2.502 3.995 3.995 0 0 1 .983-4.424M1.333 1.333l29.333 29.333"/>
    </symbol>
    <symbol id="icon-eye" viewBox="0 0 32 32">
      <path stroke-linecap="round" stroke-linejoin="round" stroke-width="2.667" d="M1.333 16S6.666 5.333 16 5.333 30.667 16 30.667 16 25.334 26.667 16 26.667 1.333 16 1.333 16z"/>
      <path stroke-linecap="round" stroke-linejoin="round" stroke-width="2.667" d="M16 20a4 4 0 1 0 0-8 4 4 0 0 0 0 8z"/>
    </symbol>
    <symbol id="icon-calendar" viewBox="0 0 32 32">
      <path fill="none" stroke="#59b17a" stroke-linecap="round" stroke-linejoin="round" stroke-width="3" d="M25.333 5.332H6.666a2.667 2.667 0 0 0-2.667 2.667v18.667a2.667 2.667 0 0 0 2.667 2.667h18.667A2.667 2.667 0 0 0 28 26.666V7.999a2.667 2.667 0 0 0-2.667-2.667zM21.332 2.668v5.333M10.668 2.668v5.333M4 13.332h24" style="stroke:var(--color1, #59b17a)"/>
    </symbol>
    <symbol id="icon-trash" viewBox="0 0 32 32">
      <path fill="none" stroke="#e85050" stroke-linecap="round" stroke-linejoin="round" stroke-width="2.6" d="M4 8h24M25.333 8v18.667a2.668 2.668 0 0 1-2.667 2.667H9.333a2.668 2.668 0 0 1-2.667-2.667V8m4.001 0V5.333a2.668 2.668 0 0 1 2.667-2.667h5.333a2.668 2.668 0 0 1 2.667 2.667V8M13.333 14.667v8M18.667 14.667v8" style="stroke:var(--color2, #e85050)"/>
    </symbol>
    <symbol id="icon-edit" viewBox="0 0 32 32">
      <path fill="none" stroke="#59b17a" stroke-linecap="round" stroke-linejoin="round" stroke-width="2.6" d="M22.67 4.002a3.76 3.76 0 0 1 2.667-1.104 3.779 3.779 0 0 1 2.666 1.104 3.766 3.766 0 0 1 .817 4.109 3.756 3.756 0 0 1-.817 1.223l-18 18-7.333 2 2-7.333 18-18z" style="stroke:var(--color1, #59b17a)"/>
    </symbol>
    <symbol id="icon-close" viewBox="0 0 32 32">
      <path stroke-linecap="round" stroke-linejoin="round" stroke-width="2.462" d="M24 8 8 24M8 8l16 16"/>
    </symbol>
    <symbol id="icon-filter" viewBox="0 0 32 32">
      <path fill="none" stroke="#fff" stroke-linecap="round" stroke-linejoin="round" stroke-width="3.429" d="M29.334 4H2.667l10.667 12.613v8.72L18.667 28V16.613L29.334 4z" style="stroke:var(--color3, #fff)"/>
    </symbol>
    <symbol id="icon-users" viewBox="0 0 32 32">
      <path fill="#dcdddf" d="M21.334 22.667v2.667H2.667v-2.667s0-5.333 9.333-5.333 9.333 5.333 9.333 5.333zM16.667 10a4.66 4.66 0 0 0-5.576-4.578 4.668 4.668 0 0 0-3.4 6.362c.353.853.951 1.582 1.719 2.094s1.67.786 2.593.786a4.667 4.667 0 0 0 4.667-4.667zm4.587 7.333a7.096 7.096 0 0 1 2.747 5.333v2.667h5.333v-2.667s0-4.84-8.08-5.333zM20 5.333a4.515 4.515 0 0 0-2.573.787 6.666 6.666 0 0 1 0 7.76 4.525 4.525 0 0 0 2.573.787 4.667 4.667 0 0 0 0-9.334z" style="fill:var(--color4, #dcdddf)"/>
    </symbol>
    <symbol id="icon-pharmacy" viewBox="0 0 32 32">
      <path fill="#dcdddf" d="M21.333 18.667h-4v4h-2.667v-4h-4V16h4v-4h2.667v4h4zm6.667-12h-3.533L26 2.467l-3.133-1.133-1.947 5.333H4v2.667l2.667 8-2.667 8v2.667h24v-2.667l-2.667-8 2.667-8V6.667z" style="fill:var(--color4, #dcdddf)"/>
    </symbol>
    <symbol id="icon-flask-fill" viewBox="0 0 32 32">
      <path fill="#dcdddf" d="M20 12.841V5.333h1.333a1.335 1.335 0 0 0 .943-2.277 1.334 1.334 0 0 0-.943-.391H10.666a1.335 1.335 0 0 0-.943 2.277c.251.25.589.391.943.391h1.333v7.508L5.03 23.082c-1.807 2.656.096 6.251 3.307 6.251h15.324c3.213 0 5.115-3.595 3.307-6.251L20 12.841z" style="fill:var(--color4, #dcdddf)"/>
    </symbol>
    <symbol id="icon-shopping-cart" viewBox="0 0 32 32">
      <path fill="#dcdddf" d="M9.333 24c-1.467 0-2.653 1.2-2.653 2.667s1.187 2.667 2.653 2.667S12 28.134 12 26.667C12 25.2 10.8 24 9.333 24zm-8-20c0 .733.6 1.333 1.333 1.333h1.333l4.8 10.12-1.8 3.253c-.973 1.787.307 3.96 2.333 3.96h14.667c.733 0 1.333-.6 1.333-1.333S24.732 20 23.999 20H9.332l1.467-2.667h9.933c1 0 1.88-.547 2.333-1.373l4.773-8.653a1.329 1.329 0 0 0-1.16-1.973H6.945l-.893-1.907a1.327 1.327 0 0 0-1.2-.76H2.665c-.733 0-1.333.6-1.333 1.333zm21.333 20c-1.467 0-2.653 1.2-2.653 2.667s1.187 2.667 2.653 2.667c1.467 0 2.667-1.2 2.667-2.667S24.133 24 22.666 24z" style="fill:var(--color4, #dcdddf)"/>
    </symbol>
    <symbol id="icon-dashboard" viewBox="0 0 32 32">
      <path fill="#59b17a" d="M5.333 17.333h8c.733 0 1.333-.6 1.333-1.333V5.333c0-.733-.6-1.333-1.333-1.333h-8C4.6 4 4 4.6 4 5.333V16c0 .733.6 1.333 1.333 1.333zm0 10.667h8c.733 0 1.333-.6 1.333-1.333v-5.333c0-.733-.6-1.333-1.333-1.333h-8c-.733 0-1.333.6-1.333 1.333v5.333C4 27.4 4.6 28 5.333 28zm13.334 0h8C27.4 28 28 27.4 28 26.667V16c0-.733-.6-1.333-1.333-1.333h-8c-.733 0-1.333.6-1.333 1.333v10.667c0 .733.6 1.333 1.333 1.333zM17.333 5.333v5.333c0 .733.6 1.333 1.333 1.333h8c.733 0 1.333-.6 1.333-1.333V5.333c0-.733-.6-1.333-1.333-1.333h-8c-.733 0-1.333.6-1.333 1.333z" style="fill:var(--color1, #59b17a)"/>
    </symbol>
    <symbol id="icon-logout" viewBox="0 0 32 32">
      <path fill="#fff" d="M8 2.667a4.003 4.003 0 0 0-4 4v18.667a4.003 4.003 0 0 0 4 4h8a4.003 4.003 0 0 0 4-4V6.667a4.003 4.003 0 0 0-4-4H8zm13.724 7.057a1.333 1.333 0 0 1 1.886 0l5.333 5.333a1.333 1.333 0 0 1 0 1.886l-5.333 5.333a1.333 1.333 0 0 1-1.885-1.886l3.057-3.057H13.334a1.335 1.335 0 0 1-.943-2.277c.251-.25.589-.391.943-.391h11.448l-3.057-3.057a1.333 1.333 0 0 1 0-1.886z" style="fill:var(--color3, #fff)"/>
    </symbol>
    <symbol id="icon-currency" viewBox="0 0 32 32">
      <path stroke-linecap="round" stroke-linejoin="round" stroke-width="2.4" d="M20.572 17.143c5.681 0 10.286-2.047 10.286-4.571s-4.605-4.571-10.286-4.571c-5.681 0-10.286 2.047-10.286 4.571s4.605 4.571 10.286 4.571z"/>
      <path stroke-linecap="round" stroke-linejoin="round" stroke-width="2.4" d="M10.286 12.572v13.714c0 2.514 4.571 4.571 10.286 4.571s10.286-2.057 10.286-4.571V12.572"/>
      <path stroke-linecap="round" stroke-linejoin="round" stroke-width="2.4" d="M30.857 19.429c0 2.514-4.572 4.571-10.286 4.571s-10.286-2.057-10.286-4.571m10.058-16a15.483 15.483 0 0 0-8.914-2.286C5.738 1.143 1.143 3.2 1.143 5.714c0 1.349 1.326 2.56 3.429 3.429"/>
      <path stroke-linecap="round" stroke-linejoin="round" stroke-width="2.4" d="M4.572 22.857c-2.103-.869-3.429-2.08-3.429-3.429V5.714"/>
      <path stroke-linecap="round" stroke-linejoin="round" stroke-width="2.4" d="M4.572 16c-2.103-.869-3.429-2.08-3.429-3.428"/>
    </symbol>
    <symbol id="icon-ci_users" viewBox="0 0 32 32">
      <path stroke-linecap="round" stroke-linejoin="round" stroke-width="2.4" d="M28 26.667c0-2.323-2.227-4.297-5.333-5.031M20 26.667c0-2.947-3.581-5.333-8-5.333s-8 2.387-8 5.333m16-9.334a5.332 5.332 0 1 0 0-10.666m-8 10.666a5.332 5.332 0 1 1 0-10.665 5.332 5.332 0 0 1 0 10.665z"/>
    </symbol>
  </defs>
</svg>
